<svg width="133" height="133" viewBox="0 0 133 133" fill="none" xmlns="http://www.w3.org/2000/svg">
<rect width="133" height="133" rx="24" fill="#9FAF90"/>
<circle cx="64" cy="66" r="39" fill="#549F93"/>
<path d="M105.584 63.0681C106.804 62.9286 107.913 63.8045 107.987 65.0301C108.49 73.3452 106.482 81.6391 102.199 88.8235C97.5351 96.6459 90.4311 102.72 81.9791 106.112C73.5271 109.503 64.1951 110.025 55.4176 107.597C46.6402 105.168 38.9034 99.9243 33.3965 92.6707C27.8897 85.4171 24.9177 76.5556 24.9376 67.4484C24.9575 58.3413 27.968 49.4928 33.5064 42.2633C39.0448 35.0338 46.8045 29.8234 55.5924 27.4334C63.6637 25.2382 72.192 25.5337 80.066 28.2528C81.2265 28.6536 81.7724 29.9565 81.3102 31.094V31.094C80.8479 32.2315 79.5528 32.7722 78.3897 32.3788C71.4208 30.0221 63.8903 29.7845 56.7593 31.7239C48.9115 33.8583 41.982 38.5112 37.0361 44.9673C32.0902 51.4234 29.4017 59.3253 29.384 67.4581C29.3663 75.591 32.0203 83.5045 36.938 89.9821C41.8557 96.4597 48.7648 101.143 56.6032 103.311C64.4416 105.48 72.7754 105.014 80.3231 101.985C87.8709 98.9561 94.2149 93.532 98.3798 86.5465C102.164 80.1991 103.959 72.8818 103.562 65.5359C103.496 64.3098 104.365 63.2077 105.584 63.0681V63.0681Z" fill="black"/>
<path fill-rule="evenodd" clip-rule="evenodd" d="M95.4375 33.1719C95.4375 32.0673 94.5421 31.1719 93.4375 31.1719C92.3329 31.1719 91.4375 32.0673 91.4375 33.1719V40.6797H84.0859C82.9814 40.6797 82.0859 41.5751 82.0859 42.6797C82.0859 43.7843 82.9814 44.6797 84.0859 44.6797H91.4375V52.0313C91.4375 53.1358 92.3329 54.0313 93.4375 54.0313C94.5421 54.0313 95.4375 53.1358 95.4375 52.0313V44.6797H102.945C104.05 44.6797 104.945 43.7843 104.945 42.6797C104.945 41.5751 104.05 40.6797 102.945 40.6797H95.4375V33.1719Z" fill="black"/>
<path d="M66.2956 89.3594C65.6317 89.3594 65.0884 89.1299 64.6659 88.671C64.2434 88.2427 64.0322 87.7074 64.0322 87.0649V83.9444C62.1912 83.8221 60.5465 83.5314 59.0979 83.0726C57.6794 82.5831 56.4572 82.0477 55.4311 81.4664C54.737 81.0687 54.2994 80.5334 54.1183 79.8603C53.9674 79.1873 54.0127 78.5448 54.2541 77.933C54.4955 77.3211 54.903 76.8928 55.4764 76.6481C56.0498 76.4033 56.7288 76.5104 57.5135 76.9693C58.3585 77.4588 59.46 77.933 60.8181 78.3919C62.2063 78.8202 63.8662 79.0343 65.7977 79.0343C68.0611 79.0343 69.6908 78.6366 70.6867 77.8412C71.6826 77.0152 72.1806 75.9903 72.1806 74.7666C72.1806 73.757 71.8335 72.931 71.1394 72.2886C70.4452 71.6461 69.2079 71.1261 67.4273 70.7284L62.6288 69.6729C57.1664 68.4798 54.4352 65.5735 54.4352 60.954C54.4352 58.3842 55.2953 56.2274 57.0155 54.4836C58.7659 52.7092 61.1048 51.6385 64.0322 51.2713V48.0132C64.0322 47.3708 64.2434 46.8354 64.6659 46.4071C65.0884 45.9482 65.6317 45.7188 66.2956 45.7188C66.9294 45.7188 67.4575 45.9482 67.88 46.4071C68.3327 46.8354 68.559 47.3708 68.559 48.0132V51.2255C69.7662 51.3478 71.0337 51.6385 72.3616 52.0974C73.7197 52.5562 74.8967 53.1834 75.8926 53.9788C76.466 54.4377 76.798 54.9731 76.8885 55.5849C76.979 56.1662 76.8734 56.7169 76.5716 57.2369C76.3 57.7264 75.8624 58.0629 75.2588 58.2465C74.6854 58.3995 74.0064 58.2465 73.2217 57.7876C72.3465 57.2675 71.3657 56.8545 70.2793 56.5486C69.1928 56.2121 67.8951 56.0438 66.3861 56.0438C64.4547 56.0438 62.9306 56.4874 61.814 57.3746C60.7275 58.2312 60.1843 59.3631 60.1843 60.7704C60.1843 61.8106 60.5163 62.6519 61.1802 63.2943C61.8442 63.9062 62.9759 64.3957 64.5754 64.7628L69.5097 65.8641C72.4069 66.5066 74.5345 67.5314 75.8926 68.9387C77.2507 70.3154 77.9297 72.1356 77.9297 74.3995C77.9297 76.9693 77.0545 79.0802 75.3041 80.7322C73.5839 82.3536 71.3355 83.3785 68.559 83.8068V87.0649C68.559 87.7074 68.3478 88.2427 67.9253 88.671C67.5028 89.1299 66.9596 89.3594 66.2956 89.3594Z" fill="black"/>
</svg>
