<svg width="132" height="132" viewBox="0 0 132 132" fill="none" xmlns="http://www.w3.org/2000/svg">
<rect width="132" height="132" rx="24" fill="#9FAF90"/>
<path d="M97.8876 56.634C97.8876 70.0222 87.0453 80.8755 73.6706 80.8755C60.296 80.8755 49.4536 70.0222 49.4536 56.634C49.4536 43.2458 60.296 32.3926 73.6706 32.3926C87.0453 32.3926 97.8876 43.2458 97.8876 56.634Z" fill="#549F93" stroke="black" stroke-width="4"/>
<ellipse cx="58.2598" cy="76.4679" rx="24.217" ry="24.2414" fill="#9FAF90" stroke="black" stroke-width="4"/>
<path d="M58.3284 91.8942C57.7164 91.8942 57.1993 91.6784 56.7772 91.2468C56.3551 90.8151 56.144 90.2755 56.144 89.628V87.2323L57.0938 88.1064C55.6797 88.0417 54.4556 87.8582 53.4214 87.5561C52.3873 87.2539 51.5431 86.9518 50.8888 86.6496C50.3401 86.3906 49.9496 86.0237 49.7175 85.5489C49.5064 85.0741 49.422 84.5884 49.4642 84.092C49.5275 83.5956 49.7069 83.1424 50.0024 82.7323C50.2979 82.3222 50.6778 82.0524 51.1421 81.9229C51.6275 81.7719 52.1868 81.8366 52.8199 82.1172C53.242 82.3546 53.8752 82.6028 54.7194 82.8618C55.5847 83.0992 56.6505 83.2179 57.9169 83.2179C58.8033 83.2179 59.4998 83.1316 60.0063 82.9589C60.5339 82.7863 60.9033 82.5596 61.1143 82.2791C61.3465 81.9769 61.4625 81.6532 61.4625 81.3078C61.4625 80.9841 61.3781 80.7143 61.2093 80.4985C61.0615 80.2611 60.8083 80.056 60.4495 79.8834C60.0907 79.6891 59.5947 79.5165 58.9616 79.3654L55.3842 78.5884C53.4214 78.1352 51.9546 77.3797 50.9838 76.3222C50.034 75.243 49.5592 73.8509 49.5592 72.1459C49.5592 70.8509 49.8652 69.6962 50.4773 68.6818C51.1104 67.6459 51.9863 66.8041 53.1049 66.1566C54.2445 65.5092 55.5742 65.0991 57.0938 64.9264L56.144 65.4768V63.3077C56.144 62.6602 56.3551 62.1206 56.7772 61.689C57.1993 61.2573 57.7164 61.0415 58.3284 61.0415C58.9616 61.0415 59.4892 61.2573 59.9113 61.689C60.3334 62.1206 60.5445 62.6602 60.5445 63.3077V65.4768L59.5947 64.8617C60.3967 64.8833 61.262 65.0235 62.1907 65.2825C63.1193 65.52 63.9319 65.8545 64.6283 66.2861C65.1138 66.5451 65.4514 66.9013 65.6414 67.3545C65.8524 67.8077 65.9263 68.2718 65.863 68.7466C65.8208 69.1998 65.6519 69.6099 65.3565 69.9768C65.0821 70.3437 64.7022 70.5919 64.2168 70.7214C63.7525 70.8293 63.1932 70.743 62.5389 70.4624C62.0535 70.2466 61.5048 70.0739 60.8927 69.9444C60.3018 69.7934 59.542 69.7178 58.6133 69.7178C57.4948 69.7178 56.6294 69.9229 56.0174 70.3329C55.4264 70.743 55.131 71.2718 55.131 71.9193C55.131 72.3509 55.2998 72.7178 55.6375 73.02C55.9963 73.3006 56.64 73.5488 57.5686 73.7646L61.1776 74.574C63.1826 75.0272 64.66 75.7826 65.6097 76.8402C66.5806 77.8762 67.066 79.2251 67.066 80.887C67.066 82.1819 66.76 83.3258 66.1479 84.3186C65.5359 85.3115 64.6811 86.1208 63.5836 86.7467C62.5073 87.3726 61.2515 87.7827 59.8163 87.9769L60.5445 87.2V89.628C60.5445 90.2755 60.3334 90.8151 59.9113 91.2468C59.5103 91.6784 58.9827 91.8942 58.3284 91.8942Z" fill="black"/>
<path d="M40.9602 29.3999C41.7408 28.6185 41.7408 27.3515 40.9602 26.5701C40.1795 25.7886 38.9138 25.7886 38.1332 26.5701L40.9602 29.3999ZM17.7338 47.8189C17.7338 48.924 18.6288 49.8199 19.7328 49.8199H37.7237C38.8277 49.8199 39.7227 48.924 39.7227 47.8189C39.7227 46.7138 38.8277 45.8179 37.7237 45.8179H21.7318V29.8098C21.7318 28.7047 20.8368 27.8088 19.7328 27.8088C18.6288 27.8088 17.7338 28.7047 17.7338 29.8098L17.7338 47.8189ZM38.1332 26.5701L18.3193 46.404L21.1463 49.2338L40.9602 29.3999L38.1332 26.5701Z" fill="black"/>
<path d="M92.0711 102.6C91.2904 103.381 91.2904 104.648 92.0711 105.43C92.8517 106.211 94.1174 106.211 94.8981 105.43L92.0711 102.6ZM115.297 84.181C115.297 83.0759 114.402 82.18 113.298 82.18H95.3075C94.2035 82.18 93.3086 83.0759 93.3086 84.181C93.3086 85.2861 94.2035 86.182 95.3075 86.182H111.299V102.19C111.299 103.295 112.194 104.191 113.298 104.191C114.402 104.191 115.297 103.295 115.297 102.19V84.181ZM94.8981 105.43L114.712 85.5959L111.885 82.7661L92.0711 102.6L94.8981 105.43Z" fill="black"/>
</svg>
