<svg width="131" height="131" viewBox="0 0 131 131" fill="none" xmlns="http://www.w3.org/2000/svg">
<rect width="131" height="131" rx="24" fill="#9FAF90"/>
<rect x="28.6562" y="75.7344" width="45.0312" height="14.3281" rx="6" stroke="black" stroke-width="4"/>
<rect x="36.8438" y="31.7266" width="45.0312" height="14.3281" rx="6" stroke="black" stroke-width="4"/>
<rect x="28.6562" y="46.0547" width="45.0312" height="14.3281" rx="6" stroke="black" stroke-width="4"/>
<rect x="34.7969" y="60.3828" width="45.0312" height="14.3281" rx="6" stroke="black" stroke-width="4"/>
<ellipse cx="78.2757" cy="74.2062" rx="24.0335" ry="24.0578" fill="#549F93" stroke="black" stroke-width="4"/>
<path d="M78.4013 89.9784C77.7939 89.9784 77.2807 89.7642 76.8618 89.3358C76.4429 88.9074 76.2334 88.3719 76.2334 87.7293V85.3518L77.176 86.2193C75.7726 86.155 74.5578 85.973 73.5315 85.6731C72.5052 85.3732 71.6673 85.0733 71.018 84.7735C70.4735 84.5164 70.086 84.1523 69.8556 83.6811C69.6461 83.2099 69.5623 82.7279 69.6042 82.2353C69.6671 81.7426 69.8451 81.2928 70.1383 80.8859C70.4316 80.4789 70.8086 80.2111 71.2694 80.0826C71.7511 79.9327 72.3062 79.997 72.9345 80.2754C73.3534 80.511 73.9818 80.7573 74.8196 81.0144C75.6784 81.25 76.7361 81.3678 77.9929 81.3678C78.8726 81.3678 79.5638 81.2821 80.0664 81.1108C80.5901 80.9394 80.9566 80.7145 81.1661 80.436C81.3965 80.1362 81.5117 79.8149 81.5117 79.4722C81.5117 79.1509 81.4279 78.8831 81.2603 78.6689C81.1137 78.4333 80.8624 78.2299 80.5063 78.0585C80.1502 77.8657 79.658 77.6944 79.0297 77.5444L75.4794 76.7733C73.5315 76.3235 72.0758 75.5738 71.1123 74.5243C70.1697 73.4533 69.6985 72.0718 69.6985 70.3796C69.6985 69.0945 70.0022 67.9485 70.6096 66.9418C71.238 65.9137 72.1072 65.0784 73.2173 64.4358C74.3484 63.7932 75.6679 63.3862 77.176 63.2149L76.2334 63.7611V61.6084C76.2334 60.9658 76.4429 60.4303 76.8618 60.002C77.2807 59.5736 77.7939 59.3594 78.4013 59.3594C79.0297 59.3594 79.5533 59.5736 79.9722 60.002C80.3911 60.4303 80.6006 60.9658 80.6006 61.6084V63.7611L79.658 63.1506C80.4539 63.172 81.3127 63.3113 82.2343 63.5683C83.1559 63.8039 83.9623 64.1359 84.6535 64.5643C85.1352 64.8213 85.4704 65.1747 85.6589 65.6245C85.8683 66.0744 85.9416 66.5349 85.8788 67.0061C85.8369 67.4559 85.6693 67.8629 85.3761 68.227C85.1038 68.5911 84.7268 68.8375 84.2451 68.966C83.7843 69.0731 83.2292 68.9874 82.5799 68.7089C82.0982 68.4947 81.5536 68.3234 80.9462 68.1949C80.3597 68.0449 79.6056 67.97 78.6841 67.97C77.5739 67.97 76.7152 68.1735 76.1078 68.5804C75.5213 68.9874 75.2281 69.5122 75.2281 70.1547C75.2281 70.5831 75.3956 70.9473 75.7308 71.2471C76.0868 71.5256 76.7257 71.7719 77.6473 71.9861L81.2289 72.7893C83.2187 73.2391 84.6849 73.9888 85.6275 75.0384C86.5909 76.0665 87.0727 77.4052 87.0727 79.0545C87.0727 80.3397 86.769 81.4749 86.1616 82.4602C85.5541 83.4455 84.7059 84.2487 83.6167 84.8699C82.5485 85.491 81.3022 85.898 79.8779 86.0908L80.6006 85.3197V87.7293C80.6006 88.3719 80.3911 88.9074 79.9722 89.3358C79.5742 89.7642 79.0506 89.9784 78.4013 89.9784Z" fill="black"/>
</svg>
