<svg width="211" height="192" viewBox="0 0 211 192" fill="none" xmlns="http://www.w3.org/2000/svg">
<path d="M115.806 113.747L104.133 110.672L53.5217 52.9196C45.6962 57.2329 39.2472 64.0794 35.0345 72.5455L56.3316 98.0963L31.8435 91.6491C27.0005 99.9489 24.9184 108.675 26.0071 117.925L88.1104 136.201C93.3096 142.428 95.8062 145.953 100.761 149.095C105.853 152.32 114.139 155.902 123.304 153.252C124.454 153.079 119.518 125.529 115.806 113.747Z" fill="#9FAF90"/>
<path d="M145.296 20.969L138.891 6.14428C138.434 5.08035 137.79 4.12629 137 3.33684C136.207 2.54738 135.283 1.93792 134.279 1.54332C133.274 1.14859 132.209 0.97649 131.144 1.03675C130.079 1.09701 129.036 1.38832 128.072 1.89437L121.464 5.36798L134.839 36.395L141.448 32.92C142.413 32.4166 143.278 31.7076 143.995 30.8338C144.711 29.9598 145.263 28.9383 145.621 27.8278C145.978 26.7171 146.133 25.5395 146.078 24.3626C146.022 23.1855 145.757 22.0322 145.296 20.969ZM137.216 22.8439C137.216 22.9102 137.192 22.9738 137.15 23.0206C137.108 23.0676 137.05 23.0939 136.99 23.0939C136.93 23.0939 136.872 23.0676 136.83 23.0206C136.788 22.9738 136.764 22.9102 136.764 22.8439V17.2414L133.392 18.8914C133.357 18.9051 133.32 18.9098 133.284 18.9053C133.249 18.9007 133.213 18.887 133.182 18.8653C133.152 18.8436 133.126 18.8144 133.107 18.7798C133.088 18.7453 133.077 18.7065 133.074 18.6664V12.6941C133.074 12.6278 133.097 12.5643 133.14 12.5173C133.182 12.4705 133.24 12.4441 133.3 12.4441C133.359 12.4441 133.418 12.4705 133.46 12.5173C133.502 12.5643 133.526 12.6278 133.526 12.6941V18.294L136.899 16.6441C136.933 16.6289 136.969 16.6234 137.004 16.6277C137.04 16.6321 137.073 16.6463 137.103 16.6691C137.135 16.6898 137.163 16.7189 137.182 16.7538C137.202 16.7885 137.214 16.8281 137.216 16.8691V22.8439Z" fill="#9FAF90"/>
<path d="M163.583 88.3715C163.715 88.978 163.729 89.6081 163.628 90.2215C165.193 89.4523 166.619 88.3766 167.837 87.0465C166.456 87.6224 165.032 88.0657 163.583 88.3715Z" fill="#E9E9E9"/>
<path d="M118.974 110.097C116.417 103.248 111.165 91.6964 106.571 93.0214C103.561 93.8964 102.249 100.221 102.701 109.074L104.105 110.674L115.783 113.749C115.345 112.166 114.738 110.647 113.973 109.224C115.554 109.547 117.34 109.822 118.974 110.097Z" fill="#E9E9E9"/>
<path d="M33.2883 29.5438C31.342 33.37 30.5726 47.1197 28.5811 54.5196C27.8086 57.2441 27.3078 60.0537 27.0874 62.8984C28.1565 64.8473 29.5189 66.5804 31.1157 68.0232C33.1892 62.3257 36.1795 57.0901 39.9419 52.5696C37.6287 45.9921 38.1635 38.5199 33.2883 29.5438Z" fill="#E9E9E9"/>
<path d="M21.2939 98.2713C16.0303 93.9582 13.1645 87.5913 4.54565 82.7216C4.74933 87.0965 10.7466 99.1963 12.625 106.621C13.2795 109.379 14.2132 112.046 15.4086 114.572C17.2556 115.588 19.246 116.247 21.2939 116.522C20.3052 110.488 20.3052 104.306 21.2939 98.2713Z" fill="#E9E9E9"/>
<path d="M145.182 88.3215C144.481 95.6214 147.989 97.0963 151.519 90.9715C149.301 90.4352 147.166 89.5424 145.182 88.3215Z" fill="#E9E9E9"/>
<path d="M149.776 76.1204C150.908 76.7204 152.764 77.2204 153.216 76.8704L153.895 75.0455C152.809 73.5955 151.157 74.4771 149.776 76.1204Z" fill="#E9E9E9"/>
<path d="M172.369 71.7455C171.375 67.6772 168.635 62.8207 162.344 56.7959C160.926 62.7689 159.831 68.8293 159.062 74.9455C162.036 74.1293 165.095 73.7427 168.16 73.7955C168.432 73.1455 169.002 73.835 169.722 76.1205C169.745 76.1954 169.812 76.3954 169.88 76.6468C170.025 76.5932 170.18 76.5761 170.333 76.5968C170.265 75.5718 170.154 74.4468 170.016 73.2218C169.349 67.3206 170.908 66.5009 172.324 72.4218C172.413 72.7968 172.596 73.8218 172.801 75.0718C172.779 73.9479 172.635 72.8309 172.369 71.7455Z" fill="#E9E9E9"/>
<path d="M169.331 114.247L168.199 122.822C168.199 122.822 171.571 118.072 172.748 115.849L169.331 114.247Z" fill="#E9E9E9"/>
<path d="M50.738 177.149L74.0945 182.174L52.209 160.649L28.8525 155.623L50.738 177.149Z" fill="#E9E9E9"/>
<path d="M74.0488 182.174L95.8212 166.399L70.2921 162.974L61.2158 169.549L74.0488 182.174Z" fill="#E9E9E9"/>
<path d="M50.738 177.149L74.0945 182.174L52.209 160.649L28.8525 155.623L50.738 177.149Z" stroke="black" stroke-width="1.5" stroke-linejoin="round"/>
<path d="M74.0488 182.174L95.8212 166.399L70.2921 162.974L61.2158 169.549L74.0488 182.174Z" stroke="black" stroke-width="1.5" stroke-linejoin="round"/>
<path d="M70.3606 72.1205C78.8349 68.3639 88.0123 66.9535 97.0927 68.0123C106.174 69.0712 114.882 72.5671 122.46 78.1954" stroke="black" stroke-width="1.5" stroke-linecap="round" stroke-linejoin="round"/>
<path d="M44.8313 95.0714C46.0773 93.0203 47.4295 91.0504 48.8811 89.1715" stroke="black" stroke-width="1.5" stroke-linecap="round" stroke-linejoin="round"/>
<path d="M35.9586 120.851C35.6133 123.66 35.4394 126.492 35.4381 129.326C35.4196 139.503 37.6938 149.526 42.0533 158.487" stroke="black" stroke-width="1.5" stroke-linecap="round" stroke-linejoin="round"/>
<path d="M145.726 142.848C143.672 152.945 139.352 162.308 133.163 170.076C126.973 177.845 119.113 183.767 110.308 187.298C101.502 190.83 92.0329 191.856 82.7736 190.284C73.7518 188.751 65.2114 184.798 57.8984 178.778" stroke="black" stroke-width="1.5" stroke-linecap="round" stroke-linejoin="round"/>
<path d="M146.45 11.8941C149.912 9.4942 154.53 8.29159 158.468 9.84419C164.987 12.4152 168.276 21.0466 166.66 28.2188C165.151 34.9213 160.348 40.7462 157.086 46.4697C151.589 56.1222 149.344 63.2957 152.583 74.3205" stroke="black" stroke-width="1.5" stroke-linecap="round" stroke-linejoin="round"/>
<path d="M141.018 11.0442L143.802 17.469L145.771 16.4164C146.304 16.13 146.714 15.6238 146.913 15.0067C147.112 14.3895 147.083 13.7108 146.835 13.1165L146.001 11.1665C145.741 10.5773 145.284 10.1242 144.725 9.90446C144.166 9.68472 143.552 9.71604 143.013 9.99156L141.018 11.0442Z" stroke="black" stroke-width="1.5" stroke-linecap="round" stroke-linejoin="round"/>
<path d="M134.861 36.395L121.486 5.36797L108.223 12.3441L121.6 43.3698L134.861 36.395Z" stroke="black" stroke-width="1.5" stroke-linecap="round" stroke-linejoin="round"/>
<path d="M145.318 20.969L138.914 6.11927C138.456 5.05534 137.813 4.10128 137.022 3.31196C136.23 2.5225 135.306 1.91304 134.302 1.51831C133.296 1.12358 132.232 0.951481 131.167 1.01174C130.102 1.072 129.057 1.36345 128.095 1.86936L121.487 5.36797L134.862 36.395L141.471 32.92C142.435 32.4145 143.297 31.7043 144.012 30.8301C144.726 29.9557 145.278 28.9346 145.635 27.8249C145.992 26.715 146.149 25.5383 146.094 24.362C146.04 23.1856 145.776 22.0328 145.318 20.969Z" stroke="black" stroke-width="1.5" stroke-linecap="round" stroke-linejoin="round"/>
<path d="M133.279 12.7102V18.549L136.964 16.9043V22.8663" stroke="black" stroke-width="1.5" stroke-linecap="round" stroke-linejoin="round"/>
<path d="M121.6 43.3698L108.223 12.3441L94.9617 19.319L108.337 50.3447L121.6 43.3698Z" stroke="black" stroke-width="1.5" stroke-linecap="round" stroke-linejoin="round"/>
<path d="M84.9124 34.545C84.4546 33.4812 84.191 32.3282 84.1365 31.1518C84.0822 29.9753 84.2381 28.7987 84.5956 27.6888C84.9529 26.5791 85.5048 25.5579 86.2194 24.6838C86.9341 23.8096 87.7976 23.0994 88.7609 22.5939L94.9618 19.319L108.337 50.3447L102.136 53.6196C101.173 54.1255 100.129 54.4169 99.064 54.4772C97.9991 54.5373 96.9343 54.3652 95.9298 53.9705C94.9252 53.5759 94.0009 52.9664 93.2097 52.177C92.4183 51.3875 91.7756 50.4336 91.3182 49.3697L84.9124 34.545Z" stroke="black" stroke-width="1.5" stroke-linecap="round" stroke-linejoin="round"/>
<path d="M88.1045 136.198L25.9821 117.922C24.8958 108.672 26.9779 99.9463 31.8186 91.6464L56.3292 98.0937" stroke="black" stroke-width="1.5" stroke-linecap="round" stroke-linejoin="round"/>
<path d="M115.783 113.747L104.127 110.672" stroke="black" stroke-width="1.5" stroke-linecap="round" stroke-linejoin="round"/>
<path d="M122.188 144.098C118.268 144.919 114.22 144.53 110.487 142.973C105.642 141.052 101.315 137.813 97.9037 133.555L40.8245 63.5562" stroke="black" stroke-width="1.5" stroke-linecap="round" stroke-linejoin="round"/>
<path d="M26.0466 108.022L76.5616 122.372" stroke="black" stroke-width="1.5" stroke-linecap="round" stroke-linejoin="round"/>
<path d="M159.057 75.0205C157.562 88.1965 160.392 90.3215 167.815 87.0465" stroke="black" stroke-width="1.5" stroke-linecap="round" stroke-linejoin="round"/>
<path d="M113.291 121.147L53.5064 52.9288C45.6876 57.2421 39.2442 64.0849 35.0347 72.5455L93.4493 142.623C95.5613 145.183 98.0194 147.368 100.736 149.098C105.839 152.332 114.128 155.904 123.302 153.254" stroke="black" stroke-width="1.5" stroke-linecap="round" stroke-linejoin="round"/>
<path d="M156.498 91.0464C164.375 95.52 163.696 88.8215 163.696 88.8215L163.648 88.3557" stroke="black" stroke-width="1.5" stroke-linecap="round" stroke-linejoin="round"/>
<path d="M163.289 91.2214C162.157 96.9713 140.498 111.847 108.654 93.2714" stroke="black" stroke-width="1.5" stroke-linecap="round" stroke-linejoin="round"/>
<path d="M102.701 109.072C102.249 100.221 103.56 93.8938 106.571 93.0201C111.164 91.6899 116.417 103.245 118.974 110.096C117.458 109.746 115.602 109.446 113.972 109.221" stroke="black" stroke-width="1.5" stroke-linecap="round" stroke-linejoin="round"/>
<path d="M33.2883 29.5438C32.6773 28.3938 32.1567 27.7412 31.772 27.7938C29.3707 28.1254 28.7645 43.1711 26.7253 50.7197C25.9806 53.2724 25.5308 55.9186 25.3865 58.5958C25.6839 60.1424 26.2625 61.6061 27.0873 62.8984C27.2919 60.0522 27.7931 57.2415 28.581 54.5222C30.5714 47.1197 31.342 33.37 33.2883 29.5438Z" stroke="black" stroke-width="1.5" stroke-linecap="round" stroke-linejoin="round"/>
<path d="M39.9419 52.5696C38.403 48.1947 38.1838 44.1685 37.1809 40.0199C36.2886 36.3605 34.9807 32.8404 33.2883 29.5438C31.342 33.37 30.5607 47.1158 28.5811 54.5196C27.8068 57.2436 27.306 60.0534 27.0874 62.8983C28.1565 64.8473 29.5189 66.5804 31.1157 68.0232C33.1889 62.3256 36.1792 57.0899 39.9419 52.5696Z" stroke="black" stroke-width="1.5" stroke-linecap="round" stroke-linejoin="round"/>
<path d="M31.1157 68.0206L35.0309 72.5455" stroke="black" stroke-width="1.5" stroke-linecap="round" stroke-linejoin="round"/>
<path d="M39.9419 52.5696L45.1256 58.9958" stroke="black" stroke-width="1.5" stroke-linecap="round" stroke-linejoin="round"/>
<path d="M4.54197 82.7216C3.4783 82.1203 2.70885 81.8716 2.41464 82.1466C0.561273 83.8742 7.28152 96.9279 9.2266 104.496C9.83884 107.091 10.7356 109.593 11.8971 111.947C12.8908 113.085 14.0844 113.987 15.4049 114.597C14.2091 112.071 13.2754 109.404 12.6213 106.646C10.7584 99.1923 4.74922 87.0965 4.54197 82.7216Z" stroke="black" stroke-width="1.5" stroke-linecap="round" stroke-linejoin="round"/>
<path d="M21.2939 98.2713C17.8766 95.4714 15.7242 92.1991 12.8965 89.2965C10.3738 86.7254 7.5681 84.515 4.54565 82.7177C4.74933 87.0926 10.7394 99.195 12.625 106.617C13.2784 109.375 14.2122 112.042 15.4086 114.568C17.2556 115.584 19.246 116.243 21.2939 116.518C20.3056 110.485 20.3056 104.305 21.2939 98.2713Z" stroke="black" stroke-width="1.5" stroke-linecap="round" stroke-linejoin="round"/>
<path d="M21.3162 116.522L25.9782 117.922" stroke="black" stroke-width="1.5" stroke-linecap="round" stroke-linejoin="round"/>
<path d="M21.2939 98.2713L27.8343 100.346" stroke="black" stroke-width="1.5" stroke-linecap="round" stroke-linejoin="round"/>
<path d="M179.674 146.248C180.341 147.84 180.565 149.615 180.319 151.348C180.073 153.081 179.366 154.694 178.291 155.985C177.214 157.274 175.816 158.182 174.272 158.594C172.728 159.006 171.108 158.903 169.618 158.298C168.128 157.694 166.832 156.613 165.897 155.196C164.962 153.778 164.429 152.086 164.364 150.333C164.299 148.581 164.706 146.847 165.534 145.349C166.362 143.852 167.573 142.66 169.014 141.923C169.971 141.432 171.006 141.155 172.06 141.106C173.114 141.059 174.166 141.24 175.157 141.641C176.147 142.044 177.056 142.657 177.831 143.448C178.605 144.239 179.232 145.19 179.674 146.248Z" stroke="black" stroke-width="1.5" stroke-linecap="round" stroke-linejoin="round"/>
<path d="M170.1 144.498L172.386 149.973L177.252 147.498" stroke="black" stroke-width="1.5" stroke-linecap="round" stroke-linejoin="round"/>
<path d="M153.895 75.0455C153.687 74.7627 153.413 74.5469 153.103 74.4205C151.078 73.606 147.989 77.5454 146.246 83.1466C144.503 88.7478 144.755 93.9122 146.812 94.6964C148.172 95.2148 149.958 93.6714 151.542 90.9715" stroke="black" stroke-width="1.5" stroke-linecap="round" stroke-linejoin="round"/>
<path d="M153.103 74.4205C147.312 72.9284 141.594 71.1094 135.972 68.9706C129.499 66.4943 118.679 70.2456 123.908 83.9466C126.465 90.6465 133.866 98.3213 139.796 102.296" stroke="black" stroke-width="1.5" stroke-linecap="round" stroke-linejoin="round"/>
<path d="M146.812 94.6964L130.743 85.7216" stroke="black" stroke-width="1.5" stroke-linecap="round" stroke-linejoin="round"/>
<path d="M160.414 87.5715C159.917 88.2715 159.422 88.9505 158.943 89.5452C156.741 92.2859 150.976 91.8201 145.16 88.3452" stroke="black" stroke-width="1.5" stroke-linecap="round" stroke-linejoin="round"/>
<path d="M153.171 76.8204C152.718 77.1954 150.908 76.6954 149.776 76.1204" stroke="black" stroke-width="1.5" stroke-linecap="round" stroke-linejoin="round"/>
<path d="M157.064 73.5455C157.086 73.2705 157.131 71.4403 157.154 71.1955C157.267 66.7956 156.351 67.5496 154.936 72.0705C153.734 75.6581 152.36 79.1718 150.817 82.5966" stroke="black" stroke-width="1.5" stroke-linecap="round" stroke-linejoin="round"/>
<path d="M160.663 64.7207C160.279 63.1707 159.149 64.472 158.219 68.4206C157.452 71.6719 156.86 74.4731 156.272 76.5954" stroke="black" stroke-width="1.5" stroke-linecap="round" stroke-linejoin="round"/>
<path d="M158.966 75.9454C157.669 75.979 156.407 76.4119 155.321 77.1954" stroke="black" stroke-width="1.5" stroke-linecap="round" stroke-linejoin="round"/>
<path d="M191.715 118.029L175.754 108.804C177.021 101.128 181.027 93.503 186.712 89.6781C186.712 89.6781 199.791 99.0805 206.561 106.604C213.245 114.033 207.871 129.773 191.781 125.279C186.472 123.787 179.435 119.201 172.748 115.838C159.061 140.048 133.553 149.278 125.58 152.479C124.815 152.786 124.052 153.043 123.296 153.261C124.631 153.061 117.569 114.929 113.971 109.229C122.887 111.179 150.204 114.829 168.356 94.2293" stroke="black" stroke-width="1.5" stroke-linecap="round" stroke-linejoin="round"/>
<path d="M177.433 83.1466C177.433 83.1466 178.836 79.2691 180.649 78.5415C182.595 77.7652 179.174 84.8176 179.359 88.7426C179.426 90.1425 183.502 92.4175 183.502 92.4175" stroke="black" stroke-width="1.5" stroke-linecap="round" stroke-linejoin="round"/>
<path d="M175.034 73.0955C174.876 70.8706 175.207 63.6918 176.731 70.6456C177.022 72.5147 177.21 74.4014 177.297 76.2954C177.621 79.4472 177.567 82.6324 177.139 85.7689" stroke="black" stroke-width="1.5" stroke-linecap="round" stroke-linejoin="round"/>
<path d="M170.464 78.5204C170.373 78.2454 169.83 76.5468 169.762 76.2954C168.404 72.1705 167.787 73.2455 167.997 78.0204C168.173 82.0466 167.799 87.9215 167.726 89.4965C167.452 95.3727 169.83 97.0713 177.117 103.196" stroke="black" stroke-width="1.5" stroke-linecap="round" stroke-linejoin="round"/>
<path d="M173.45 79.9704C173.156 77.1454 172.54 73.3916 172.341 72.5705C170.922 66.6562 169.356 67.4956 170.033 73.3705C170.418 76.7204 170.463 79.2454 170.644 81.4717" stroke="black" stroke-width="1.5" stroke-linecap="round" stroke-linejoin="round"/>
<path d="M172.386 72.7455C172.364 61.2984 174.411 66.1193 174.966 72.4955C175.219 75.3704 175.509 77.4954 175.555 79.1954" stroke="black" stroke-width="1.5" stroke-linecap="round" stroke-linejoin="round"/>
<path d="M172.388 71.8534C171.436 67.7561 168.684 62.8733 162.338 56.7958C160.92 62.7687 159.825 68.8293 159.056 74.9455C162.031 74.1292 165.089 73.7427 168.154 73.7955" stroke="black" stroke-width="1.5" stroke-linecap="round" stroke-linejoin="round"/>
<path d="M158.4 96.845C159.781 98.245 161.116 99.4765 165.167 97.52" stroke="black" stroke-width="1.5" stroke-linecap="round" stroke-linejoin="round"/>
<path d="M167.837 87.0465C166.909 88.5465 163.628 90.2215 163.628 90.2215" stroke="black" stroke-width="1.5" stroke-linecap="round" stroke-linejoin="round"/>
<path d="M201.333 52.0946C201.129 53.3696 194.951 53.1472 187.528 51.5946C180.105 50.042 174.265 47.7697 174.468 46.4947C174.672 45.2198 180.85 45.4421 188.274 46.9947C195.699 48.5473 201.536 50.8197 201.333 52.0946Z" stroke="black" stroke-width="1.5" stroke-linecap="round" stroke-linejoin="round"/>
<path d="M194.838 62.6707C193.864 63.3207 189.964 57.8761 186.125 50.4697C182.286 43.0632 179.968 36.545 180.941 35.895C181.914 35.245 185.808 40.6949 189.655 48.0947C193.502 55.4946 195.811 62.0207 194.838 62.6707Z" stroke="black" stroke-width="1.5" stroke-linecap="round" stroke-linejoin="round"/>
<path d="M61.8499 17.644C61.8343 18.1857 61.6736 18.7101 61.3882 19.1508C61.1029 19.5916 60.7055 19.9289 60.2466 20.1202C59.7875 20.3115 59.2875 20.3481 58.8096 20.2253C58.3319 20.1025 57.8977 19.8261 57.5622 19.4307C57.2266 19.0354 57.0047 18.539 56.9247 18.0044C56.8445 17.4698 56.9098 16.9209 57.112 16.4272C57.3144 15.9335 57.6447 15.5172 58.0612 15.2311C58.4779 14.9447 58.9618 14.8015 59.4522 14.8191C59.7775 14.8307 60.0977 14.9129 60.3943 15.0612C60.6908 15.2093 60.958 15.4207 61.1807 15.683C61.4034 15.9454 61.577 16.2535 61.6919 16.59C61.8067 16.9264 61.8604 17.2847 61.8499 17.644Z" stroke="black" stroke-width="1.5" stroke-linecap="round" stroke-linejoin="round"/>
<path d="M172.75 115.831C171.595 115.251 170.453 114.708 169.331 114.222L168.199 122.822" stroke="black" stroke-width="1.5" stroke-linecap="round" stroke-linejoin="round"/>
<path d="M2.85416 148.752L10.5939 147.215C15.2004 146.28 13.8822 138.666 9.38994 139.578L5.06859 140.395C0.466607 141.271 -0.63325 133.616 3.86463 132.759L11.6044 131.222" stroke="black" stroke-width="2" stroke-linecap="round" stroke-linejoin="round"/>
<path d="M5.53394 129.97L8.93446 151.256" stroke="black" stroke-width="2" stroke-linecap="round" stroke-linejoin="round"/>
<path d="M132.76 59.3495L140.488 60.956C145.094 61.8929 146.315 54.2595 141.823 53.3463L137.521 52.4105C132.938 51.4198 134.377 43.8334 138.856 44.8008L146.584 46.4073" stroke="black" stroke-width="2" stroke-linecap="round" stroke-linejoin="round"/>
<path d="M141.315 42.8507L137.635 64.0802" stroke="black" stroke-width="2" stroke-linecap="round" stroke-linejoin="round"/>
</svg>
