<svg width="180" height="192" viewBox="0 0 180 192" fill="none" xmlns="http://www.w3.org/2000/svg">
<path d="M108.866 1L108.657 20.0758L120.627 40.8236L120.836 21.7478L108.866 1Z" fill="#9FAF90"/>
<path d="M113.62 28.7514L107.35 34.9833L105.621 55.9401L120.649 40.9113L113.62 28.7514Z" fill="#9FAF90"/>
<path fill-rule="evenodd" clip-rule="evenodd" d="M113.575 86.3851C126.303 74.9523 138.368 62.8042 149.715 49.9995C146.599 44.5995 142.647 40.7996 137.65 38.9416C123.068 55.4562 107.245 70.8341 90.3219 84.9411C87.4813 90.7179 85.4188 93.4678 78.7531 93.7427C78.6201 97.565 78.1432 101.368 77.3281 105.105C77.3281 105.105 80.175 110.099 88.0039 110.847C95.4698 111.561 117.036 102.696 117.036 102.696C127.406 105.417 137.465 109.204 147.055 113.996C150.532 109.74 153.306 105.275 153.496 99.632C143.253 94.1502 132.433 89.8238 121.235 86.7321C118.465 85.9446 115.919 85.9366 113.575 86.3851ZM87.1299 104.188C87.1299 104.435 87.0318 104.672 86.8572 104.846C86.6826 105.021 86.4458 105.119 86.1989 105.119C85.952 105.119 85.7152 105.021 85.5406 104.846C85.366 104.672 85.2679 104.435 85.2679 104.188C85.2679 103.941 85.366 103.704 85.5406 103.53C85.7152 103.355 85.952 103.257 86.1989 103.257C86.4458 103.257 86.6826 103.355 86.8572 103.53C87.0318 103.704 87.1299 103.941 87.1299 104.188ZM100.746 94.5673C100.921 94.3927 101.019 94.1559 101.019 93.909C101.019 93.6621 100.921 93.4253 100.746 93.2507C100.572 93.0761 100.335 92.978 100.088 92.978C99.8408 92.978 99.6038 93.0761 99.4298 93.2507C99.2548 93.4253 99.1568 93.6621 99.1568 93.909C99.1568 94.1559 99.2548 94.3927 99.4298 94.5673C99.6038 94.7419 99.8408 94.84 100.088 94.84C100.335 94.84 100.572 94.7419 100.746 94.5673ZM117.606 99.78C117.606 100.027 117.508 100.264 117.333 100.438C117.159 100.613 116.922 100.711 116.675 100.711C116.428 100.711 116.191 100.613 116.017 100.438C115.842 100.264 115.744 100.027 115.744 99.78C115.744 99.533 115.842 99.296 116.017 99.122C116.191 98.947 116.428 98.849 116.675 98.849C116.922 98.849 117.159 98.947 117.333 99.122C117.508 99.296 117.606 99.533 117.606 99.78ZM134.945 95.4983C135.12 95.3237 135.218 95.0869 135.218 94.84C135.218 94.5931 135.12 94.3563 134.945 94.1817C134.771 94.0071 134.534 93.909 134.287 93.909C134.04 93.909 133.803 94.0071 133.629 94.1817C133.454 94.3563 133.356 94.5931 133.356 94.84C133.356 95.0869 133.454 95.3237 133.629 95.4983C133.803 95.6729 134.04 95.771 134.287 95.771C134.534 95.771 134.771 95.6729 134.945 95.4983ZM145.022 108.482C145.022 108.729 144.924 108.966 144.749 109.14C144.575 109.315 144.338 109.413 144.091 109.413C143.844 109.413 143.607 109.315 143.433 109.14C143.258 108.966 143.16 108.729 143.16 108.482C143.16 108.235 143.258 107.998 143.433 107.824C143.607 107.649 143.844 107.551 144.091 107.551C144.338 107.551 144.575 107.649 144.749 107.824C144.924 107.998 145.022 108.235 145.022 108.482ZM96.9078 85.3714C97.0828 85.1968 97.1808 84.96 97.1808 84.7131C97.1808 84.4662 97.0828 84.2294 96.9078 84.0548C96.7338 83.8802 96.4968 83.7821 96.2498 83.7821C96.0028 83.7821 95.7658 83.8802 95.5918 84.0548C95.4168 84.2294 95.3188 84.4662 95.3188 84.7131C95.3188 84.96 95.4168 85.1968 95.5918 85.3714C95.7658 85.546 96.0028 85.6441 96.2498 85.6441C96.4968 85.6441 96.7338 85.546 96.9078 85.3714ZM114.091 80.7612C114.091 81.0081 113.993 81.2449 113.818 81.4195C113.644 81.5941 113.407 81.6922 113.16 81.6922C112.913 81.6922 112.676 81.5941 112.502 81.4195C112.327 81.2449 112.229 81.0081 112.229 80.7612C112.229 80.5143 112.327 80.2775 112.502 80.1029C112.676 79.9283 112.913 79.8302 113.16 79.8302C113.407 79.8302 113.644 79.9283 113.818 80.1029C113.993 80.2775 114.091 80.5143 114.091 80.7612ZM117.333 66.0866C117.508 65.912 117.606 65.6752 117.606 65.4283C117.606 65.1814 117.508 64.9446 117.333 64.77C117.159 64.5954 116.922 64.4973 116.675 64.4973C116.428 64.4973 116.191 64.5954 116.017 64.77C115.842 64.9446 115.744 65.1814 115.744 65.4283C115.744 65.6752 115.842 65.912 116.017 66.0866C116.191 66.2612 116.428 66.3593 116.675 66.3593C116.922 66.3593 117.159 66.2612 117.333 66.0866ZM135.218 60.6404C135.218 60.8873 135.12 61.1241 134.945 61.2987C134.771 61.4733 134.534 61.5714 134.287 61.5714C134.04 61.5714 133.803 61.4733 133.629 61.2987C133.454 61.1241 133.356 60.8873 133.356 60.6404C133.356 60.3935 133.454 60.1567 133.629 59.9821C133.803 59.8075 134.04 59.7094 134.287 59.7094C134.534 59.7094 134.771 59.8075 134.945 59.9821C135.12 60.1567 135.218 60.3935 135.218 60.6404ZM139.301 45.0578C139.476 44.8832 139.574 44.6464 139.574 44.3995C139.574 44.1527 139.476 43.9159 139.301 43.7413C139.127 43.5667 138.89 43.4686 138.643 43.4686C138.396 43.4686 138.159 43.5667 137.985 43.7413C137.81 43.9159 137.712 44.1527 137.712 44.3995C137.712 44.6464 137.81 44.8832 137.985 45.0578C138.159 45.2324 138.396 45.3305 138.643 45.3305C138.89 45.3305 139.127 45.2324 139.301 45.0578Z" fill="#9FAF90"/>
<path d="M87.999 68.4113C87.828 68.7343 87.092 70.0453 86.3511 71.4113C84.4321 69.5323 85.2821 68.1453 87.999 68.4113Z" fill="#E9E9E9"/>
<path d="M94.2928 71.2233L93.1748 74.4342C94.1748 74.4912 95.4438 74.2762 95.4978 73.2932C95.4468 72.8847 95.3138 72.4908 95.1068 72.135C94.8998 71.7793 94.6228 71.4691 94.2928 71.2233Z" fill="#E9E9E9"/>
<path d="M82.4368 55.5484C82.7218 56.9164 82.9878 58.0944 83.1368 58.7404C83.9727 58.3034 84.5007 57.7714 84.4857 57.2014C84.4747 56.4594 83.7098 55.8904 82.4368 55.5484Z" fill="#E9E9E9"/>
<path d="M75.9392 59.4434C72.8612 58.7024 72.7662 56.8594 75.7492 55.7954C75.8966 57.0056 75.96 58.2245 75.9392 59.4434Z" fill="#E9E9E9"/>
<path d="M173.028 112.035C172.952 111.351 169.817 109.964 166.169 108.577C162.749 107.266 156.688 104.377 153.154 102.611C152.44 105.763 151.067 108.728 149.126 111.311C151.9 112.641 154.56 114.218 156.175 114.351C157.243 114.414 158.314 114.272 159.329 113.933C163.623 112.567 173.274 114.486 173.028 112.035Z" fill="#E9E9E9"/>
<path d="M155.374 22.4888C154.69 22.4128 152.674 25.2057 150.548 28.4737C148.686 31.3427 144.259 37.0426 141.276 40.7476C143.838 42.4127 146.057 44.554 147.812 47.0555C149.94 44.0915 153.531 41.3746 154.101 39.4556C154.381 38.4226 154.464 37.3464 154.348 36.2826C153.933 31.7997 157.828 22.7548 155.374 22.4888Z" fill="#E9E9E9"/>
<path d="M61.8221 67.3663C62.3602 67.0102 62.7636 66.4841 62.9678 65.872C63.172 65.2599 63.1653 64.597 62.9488 63.9891C62.7324 63.3813 62.3186 62.8634 61.7734 62.5181C61.2283 62.173 60.5832 62.0203 59.9411 62.0844C60.2966 61.5611 60.4694 60.9352 60.4328 60.3036C60.3962 59.6721 60.1521 59.0703 59.7385 58.5917C59.3249 58.113 58.7649 57.7842 58.1454 57.6563C57.5259 57.5285 56.8815 57.6086 56.3121 57.8844C57.2541 55.0644 53.3482 52.8324 51.2962 55.3194C51.2803 54.6219 51.0205 53.9521 50.562 53.4263C50.1035 52.9005 49.4752 52.552 48.7864 52.4414C48.0975 52.3307 47.3917 52.4649 46.7915 52.8205C46.1914 53.1762 45.7348 53.731 45.5012 54.3884C44.3723 51.4175 39.9343 52.2255 39.9343 55.2624C39.4811 54.8181 38.8934 54.5365 38.2631 54.4616C37.6329 54.3866 36.9955 54.5225 36.4507 54.8481C35.906 55.1737 35.4843 55.6706 35.2518 56.2612C35.0192 56.8518 34.9889 57.5028 35.1654 58.1124C34.5779 57.8493 33.9192 57.7908 33.2944 57.9461C32.6697 58.1014 32.115 58.4616 31.7191 58.9691C31.3231 59.4767 31.1086 60.1023 31.11 60.746C31.1113 61.3898 31.3284 62.0145 31.7264 62.5204C31.0503 62.4423 30.3684 62.6062 29.8017 62.9832C29.2351 63.3602 28.8204 63.9259 28.6313 64.5797C28.4422 65.2336 28.491 65.9332 28.7689 66.5545C29.0468 67.1758 29.536 67.6785 30.1494 67.9733C29.4766 68.0656 28.8581 68.3933 28.404 68.8984C27.9499 69.4034 27.6895 70.0531 27.669 70.732C27.6485 71.4108 27.8692 72.0749 28.292 72.6065C28.7148 73.138 29.3124 73.5025 29.9784 73.6352C27.4044 75.3272 29.0844 79.3432 31.8784 78.8792C31.5269 79.407 31.3588 80.0358 31.4001 80.6686C31.4413 81.3014 31.6896 81.9029 32.1067 82.3806C32.5238 82.8583 33.0864 83.1855 33.7079 83.3117C34.3293 83.438 34.9751 83.3562 35.5454 83.0791C34.5954 85.9241 38.6103 88.1051 40.5613 85.6061C40.5648 86.2879 40.8104 86.9463 41.2543 87.4639C41.6982 87.9814 42.3115 88.3244 42.9848 88.4317C43.6581 88.539 44.3477 88.4035 44.9304 88.0496C45.5131 87.6956 45.9511 87.1461 46.1662 86.4991C46.3241 86.9378 46.5869 87.3311 46.9316 87.645C47.2763 87.9589 47.6925 88.1837 48.144 88.2998C48.5955 88.416 49.0686 88.4199 49.5219 88.3114C49.9753 88.2029 50.3953 87.9851 50.7452 87.6771C49.8231 84.8808 49.0681 82.0321 48.4842 79.1462C46.7302 71.4983 47.1572 74.2942 46.3182 70.9383C43.9243 70.4253 44.6653 67.5943 46.3372 68.4873C47.1372 68.9243 47.4202 68.8673 47.4202 68.3543C47.6483 64.1363 50.8023 62.8253 53.1393 66.9863C54.9633 70.2353 56.1791 76.1252 52.8542 76.9612C52.5081 77.058 52.1495 77.1029 51.7902 77.0942C51.7902 77.9732 53.7362 80.7302 54.1082 81.1942C55.2501 81.0067 56.4173 81.039 57.5471 81.2892L60.3781 80.4342C60.4718 80.0997 60.4843 79.7477 60.4147 79.4073C60.3452 79.067 60.1955 78.7482 59.9781 78.4772C60.6525 78.5585 61.3338 78.3981 61.9011 78.0246C62.4684 77.6511 62.885 77.0886 63.0769 76.437C63.2687 75.7855 63.2234 75.087 62.949 74.4656C62.6747 73.8443 62.1889 73.3403 61.5781 73.0432C62.2505 72.9542 62.87 72.6311 63.3278 72.1307C63.7857 71.6304 64.0526 70.9848 64.0817 70.3072C64.1108 69.6296 63.9003 68.9634 63.4871 68.4256C63.0739 67.8878 62.4844 67.5127 61.8221 67.3663Z" fill="#E9E9E9"/>
<path d="M51.8662 77.1132C51.0168 77.0492 50.1831 76.8504 49.3962 76.5242L52.6642 78.9562C52.2781 78.4012 52.0067 77.7746 51.8662 77.1132Z" fill="#E9E9E9"/>
<path d="M78.751 93.776C75.0354 94.0828 71.3051 94.1717 67.5791 94.042L78.656 96.493C78.7351 95.5896 78.7668 94.6827 78.751 93.776Z" fill="#E9E9E9"/>
<path d="M43.5824 28.4547C43.5816 29.6908 43.2143 30.899 42.527 31.9265C41.8396 32.9539 40.8631 33.7544 39.7209 34.2269C38.5786 34.6994 37.3219 34.8226 36.1095 34.581C34.8972 34.3393 33.7838 33.7438 32.91 32.8694C32.0362 31.995 31.4412 30.8812 31.2003 29.6687C30.9595 28.4563 31.0835 27.1996 31.5567 26.0576C32.03 24.9156 32.8312 23.9397 33.8591 23.253C34.8869 22.5663 36.0953 22.1998 37.3315 22.1998C38.153 22.1989 38.9666 22.3601 39.7257 22.6741C40.4847 22.9882 41.1743 23.449 41.755 24.03C42.3357 24.611 42.796 25.3009 43.1096 26.0602C43.4232 26.8195 43.5839 27.6332 43.5824 28.4547Z" fill="#E9E9E9"/>
<path d="M83.425 121.231C83.1648 117.514 83.6692 113.783 84.9069 110.268" stroke="black" stroke-width="1.5" stroke-linecap="round" stroke-linejoin="round"/>
<path d="M85.192 69.7033L84.489 57.2014" stroke="black" stroke-width="1.5" stroke-linecap="round" stroke-linejoin="round"/>
<path d="M74.78 78.6712L73.564 57.7714" stroke="black" stroke-width="1.5" stroke-linecap="round" stroke-linejoin="round"/>
<path d="M52.7023 79.0322L49.3203 76.4862" stroke="black" stroke-width="1.5" stroke-linecap="round" stroke-linejoin="round"/>
<path d="M49.3202 76.4862C56.8442 79.3932 55.4932 71.0913 53.1962 67.0053C50.8572 62.8454 47.7053 64.1553 47.4773 68.3733C47.4773 68.8863 47.1943 68.9393 46.3943 68.5063C44.7273 67.6063 43.9813 70.4443 46.3753 70.9573C46.6983 72.2683 46.9683 72.9893 47.2873 74.0352C47.6343 75.1742 48.2873 78.0072 48.5413 79.1652C49.7312 84.6241 50.8572 89.1221 53.1412 92.636C59.3871 102.254 67.3531 105.48 77.328 105.136C78.143 101.399 78.6199 97.596 78.7529 93.774C85.8209 93.185 87.5708 91.6581 93.4208 78.2132C94.0078 76.8632 94.6208 75.4202 95.3018 73.8242" stroke="black" stroke-width="1.5" stroke-linecap="round" stroke-linejoin="round"/>
<path d="M54.1842 81.2172C53.1611 80.0081 52.3747 78.6172 51.8662 77.1172" stroke="black" stroke-width="1.5" stroke-linecap="round" stroke-linejoin="round"/>
<path d="M85.1919 69.6993C83.7859 73.1192 80.5679 80.2152 77.8009 82.1061C74.316 84.4881 58.6871 81.4982 58.6871 81.4982C56.1412 80.9662 53.8802 80.6812 51.8662 82.2391" stroke="black" stroke-width="1.5" stroke-linecap="round" stroke-linejoin="round"/>
<path d="M57.6042 81.2932L74.6281 76.1062" stroke="black" stroke-width="1.5" stroke-linecap="round" stroke-linejoin="round"/>
<path d="M91.7659 58.1134C93.1149 56.8974 95.9658 53.5384 97.5798 51.7295C98.3228 50.8955 98.6798 53.1355 94.2738 58.3224" stroke="black" stroke-width="1.5" stroke-linecap="round" stroke-linejoin="round"/>
<path d="M93.1748 59.0994C94.7138 58.0734 96.6988 56.4454 98.5517 55.0144C99.4207 54.3434 100.091 55.6224 95.5518 59.8784" stroke="black" stroke-width="1.5" stroke-linecap="round" stroke-linejoin="round"/>
<path d="M94.2928 71.2233C95.7928 72.6232 95.5508 73.4082 95.2998 73.8232C93.9098 75.6772 86.6049 73.0892 85.4319 70.1463C84.9569 68.9563 85.9479 68.2093 87.9989 68.4083" stroke="black" stroke-width="1.5" stroke-linecap="round" stroke-linejoin="round"/>
<path d="M93.1748 74.4342L94.2958 71.2233C95.2838 68.2023 95.5118 67.4613 94.9798 65.5803C94.5618 64.0983 94.1458 63.3983 95.0748 62.8443C100.119 59.8384 100.244 58.4574 99.2547 58.7974C97.1468 59.5234 95.8348 59.8044 94.4288 60.1654" stroke="black" stroke-width="1.5" stroke-linecap="round" stroke-linejoin="round"/>
<path d="M88.3649 64.7063C87.7932 62.7787 86.9154 60.9554 85.765 59.3064C85.081 58.3564 85.765 57.4254 88.6909 60.6364" stroke="black" stroke-width="1.5" stroke-linecap="round" stroke-linejoin="round"/>
<path d="M75.749 55.7994C72.772 56.8484 72.834 58.7244 75.939 59.4474C78.3521 59.9885 80.8752 59.7432 83.1389 58.7474C85.2689 57.6344 84.7389 56.2034 82.4389 55.5554" stroke="black" stroke-width="1.5" stroke-linecap="round" stroke-linejoin="round"/>
<path d="M78.8457 52.6605C78.5607 51.9765 78.3327 51.4065 78.1047 50.8935C76.8252 48.1589 75.2311 45.5828 73.3548 43.2176C71.0688 40.6586 70.5858 41.4096 72.0058 44.2245C74.3247 48.8245 76.1357 54.3174 75.9387 59.4434" stroke="black" stroke-width="1.5" stroke-linecap="round" stroke-linejoin="round"/>
<path d="M74.0199 44.0155C73.8843 42.7483 73.9355 41.468 74.1719 40.2156C74.2669 39.8736 74.7579 39.5516 75.1979 41.6786C75.2919 42.1346 75.7309 44.0915 75.9199 44.7785C76.2436 46.1839 76.6561 47.5673 77.1549 48.9205" stroke="black" stroke-width="1.5" stroke-linecap="round" stroke-linejoin="round"/>
<path d="M78.105 50.8935C79.036 52.1855 79.848 48.7635 80.366 47.3595C80.837 46.0845 81.8659 44.8525 81.6389 48.5755C81.4809 51.1975 82.4639 55.8654 83.1389 58.7404" stroke="black" stroke-width="1.5" stroke-linecap="round" stroke-linejoin="round"/>
<path d="M90.5308 92.123L112.742 86.5991C115.536 85.8987 118.465 85.9446 121.235 86.7321C132.433 89.8238 143.253 94.1502 153.496 99.632C153.306 105.275 150.532 109.74 147.055 113.996C137.465 109.204 127.405 105.417 117.036 102.696C117.036 102.696 95.4698 111.561 88.0038 110.847C80.1749 110.099 77.304 105.09 77.304 105.09" stroke="black" stroke-width="1.5" stroke-linecap="round" stroke-linejoin="round"/>
<path d="M113.575 86.3851C126.302 74.9523 138.368 62.8042 149.715 49.9995C146.599 44.5995 142.647 40.7996 137.65 38.9416C123.067 55.4562 107.245 70.8341 90.3218 84.9411" stroke="black" stroke-width="1.5" stroke-linecap="round" stroke-linejoin="round"/>
<path d="M173.028 112.035C172.952 111.351 169.817 109.964 166.169 108.577C162.749 107.266 156.688 104.377 153.154 102.611C152.44 105.763 151.067 108.728 149.126 111.311C151.9 112.641 154.56 114.218 156.175 114.351C157.243 114.414 158.314 114.272 159.329 113.933C163.623 112.567 173.274 114.486 173.028 112.035Z" stroke="black" stroke-width="1.5" stroke-linecap="round" stroke-linejoin="round"/>
<path d="M155.374 22.4888C154.69 22.4128 152.674 25.2057 150.548 28.4737C148.686 31.3427 144.259 37.0426 141.276 40.7476C143.838 42.4127 146.057 44.554 147.812 47.0555C149.94 44.0915 153.531 41.3746 154.101 39.4556C154.381 38.4226 154.464 37.3464 154.348 36.2826C153.933 31.7997 157.828 22.7548 155.374 22.4888Z" stroke="black" stroke-width="1.5" stroke-linecap="round" stroke-linejoin="round"/>
<path d="M60.4352 80.4382C60.4976 79.9426 60.4653 79.4397 60.3402 78.9562C60.2583 78.7872 60.1576 78.6278 60.0402 78.4812C60.7158 78.5655 61.3994 78.4069 61.9688 78.0337C62.5382 77.6605 62.9564 77.097 63.1488 76.4439C63.3411 75.7908 63.2949 75.0906 63.0186 74.4684C62.7422 73.8462 62.2537 73.3424 61.6402 73.0472C62.3196 72.962 62.9464 72.6374 63.408 72.1317C63.8696 71.626 64.1357 70.9722 64.1586 70.2878C64.1815 69.6035 63.9597 68.9334 63.5329 68.3979C63.1061 67.8624 62.5024 67.4967 61.8302 67.3663C62.3215 67.0449 62.703 66.581 62.9235 66.0369C63.144 65.4927 63.193 64.8942 63.064 64.3214C62.9351 63.7486 62.6342 63.2289 62.2018 62.8318C61.7693 62.4347 61.2259 62.1792 60.6442 62.0994C60.4124 62.0663 60.1775 62.06 59.9442 62.0804C60.1971 61.7187 60.36 61.3018 60.4192 60.8644C60.4715 60.4901 60.4495 60.1092 60.3545 59.7435C60.2594 59.3778 60.0932 59.0344 59.8652 58.7329C59.6373 58.4315 59.3521 58.178 59.0261 57.987C58.7001 57.7959 58.3396 57.671 57.9652 57.6194C57.4 57.5392 56.8239 57.632 56.3123 57.8854C56.3472 57.7673 56.3726 57.6465 56.3883 57.5244C56.4746 56.901 56.3541 56.2665 56.0454 55.7181C55.7366 55.1697 55.2567 54.7376 54.6789 54.488C54.1012 54.2384 53.4576 54.185 52.8467 54.3361C52.2357 54.4872 51.6911 54.8343 51.2963 55.3244C51.2997 54.6287 51.0516 53.9553 50.5977 53.4281C50.1438 52.901 49.5147 52.5556 48.8263 52.4555L48.6363 52.4175C47.965 52.3263 47.2829 52.4743 46.7097 52.8356C46.1365 53.1969 45.7087 53.7483 45.5014 54.3934C45.2774 53.7936 44.8599 53.2855 44.3148 52.9497C43.7697 52.6138 43.1282 52.4691 42.4917 52.5387C41.8552 52.6082 41.2601 52.8879 40.8004 53.3335C40.3407 53.7792 40.0426 54.3654 39.9534 54.9994C39.9376 55.0871 39.9313 55.1763 39.9344 55.2654C39.4974 54.8301 38.9304 54.5493 38.3195 54.4654C37.9454 54.4122 37.5645 54.4336 37.1987 54.5281C36.8329 54.6227 36.4894 54.7886 36.1879 55.0164C35.8864 55.2442 35.633 55.5293 35.4421 55.8554C35.2512 56.1814 35.1266 56.542 35.0755 56.9164C35.0205 57.3189 35.0546 57.7286 35.1755 58.1164C34.9288 58.0016 34.6662 57.9247 34.3965 57.8884C34.0222 57.8357 33.6412 57.8574 33.2753 57.9521C32.9094 58.0468 32.5657 58.2128 32.264 58.4404C31.9622 58.668 31.7083 58.9529 31.5167 59.2788C31.3251 59.6046 31.1997 59.965 31.1475 60.3394C31.0958 60.7245 31.1212 61.116 31.2223 61.4911C31.3234 61.8663 31.4982 62.2175 31.7365 62.5244C31.0591 62.4432 30.375 62.6055 29.8062 62.9822C29.2374 63.3588 28.8212 63.9255 28.6316 64.5809C28.4421 65.2362 28.4917 65.9376 28.7716 66.5598C29.0514 67.182 29.5434 67.6844 30.1595 67.9773C29.4837 68.0656 28.8614 68.3917 28.4041 68.8971C27.9467 69.4025 27.6843 70.0542 27.6637 70.7355C27.6431 71.4168 27.8658 72.0831 28.2918 72.6151C28.7178 73.1472 29.3192 73.5102 29.9885 73.6392C29.648 73.8628 29.3597 74.1572 29.1433 74.5024C28.9269 74.8475 28.7876 75.2353 28.7346 75.6392C28.6323 76.3921 28.8314 77.1549 29.2884 77.7618C29.7455 78.3687 30.4237 78.7706 31.1755 78.8802C31.4074 78.9174 31.6437 78.9174 31.8755 78.8802C31.6366 79.2474 31.4809 79.6624 31.4195 80.0962C31.3475 80.6146 31.418 81.1427 31.6234 81.6241C31.8288 82.1053 32.1615 82.5216 32.5856 82.8282C33.0097 83.1349 33.5093 83.3202 34.0307 83.3644C34.5522 83.4086 35.0759 83.31 35.5455 83.0791C35.5107 83.1908 35.4853 83.3052 35.4695 83.4211C35.415 83.7956 35.4353 84.1773 35.5292 84.544C35.6232 84.9106 35.7889 85.255 36.0169 85.5572C36.2448 85.8594 36.5304 86.1133 36.8572 86.3043C37.184 86.4954 37.5454 86.6197 37.9205 86.6701C38.4155 86.7426 38.9208 86.6822 39.3848 86.4953C39.8489 86.3083 40.2549 86.0015 40.5614 85.6061C40.5605 86.2904 40.8038 86.9526 41.2476 87.4734C41.6914 87.9943 42.3066 88.3397 42.9824 88.4473C43.6582 88.555 44.3502 88.4179 44.9339 88.0607C45.5176 87.7036 45.9547 87.1498 46.1664 86.4991C46.3243 86.9377 46.587 87.3311 46.9317 87.645C47.2765 87.9588 47.6927 88.1836 48.1441 88.2998C48.5956 88.4159 49.0686 88.4199 49.522 88.3114C49.9754 88.2029 50.3954 87.9851 50.7453 87.6771" stroke="black" stroke-width="1.5" stroke-linecap="round" stroke-linejoin="round"/>
<path d="M48.6743 79.7352L52.7023 79.0322" stroke="black" stroke-width="1.5" stroke-linecap="round" stroke-linejoin="round"/>
<path d="M157.904 166.165C156.465 165.675 155.147 164.884 154.036 163.846C152.926 162.807 152.049 161.545 151.463 160.142L149.05 154.404L158.322 150.68L159.196 152.732C160.134 154.969 161.896 156.759 164.117 157.732L174.453 162.292C174.593 162.351 174.72 162.438 174.826 162.547C174.932 162.656 175.014 162.786 175.069 162.927C175.124 163.069 175.15 163.22 175.146 163.372C175.141 163.524 175.106 163.674 175.042 163.812C174.164 165.77 172.586 167.33 170.618 168.184C168.649 169.038 166.432 169.126 164.402 168.429L157.904 166.165Z" stroke="black" stroke-width="1.5" stroke-linecap="round" stroke-linejoin="round"/>
<path d="M149.05 154.404L158.322 150.68L155.358 143.688C155.273 143.495 155.117 143.342 154.923 143.261C154.728 143.179 154.51 143.177 154.313 143.252L146.561 146.351C146.462 146.392 146.372 146.452 146.297 146.527C146.221 146.603 146.161 146.693 146.121 146.792C146.08 146.891 146.06 146.997 146.06 147.104C146.061 147.211 146.082 147.316 146.124 147.415L149.05 154.404Z" stroke="black" stroke-width="1.5" stroke-linecap="round" stroke-linejoin="round"/>
<path d="M83.3679 73.8072C84.6115 75.2402 86.159 76.3779 87.8976 77.1377C89.6359 77.8974 91.5228 78.2601 93.4188 78.1992" stroke="black" stroke-width="1.5" stroke-linecap="round" stroke-linejoin="round"/>
<path d="M73.811 61.9514C75.5527 62.6752 77.4299 63.015 79.3149 62.9479C81.1998 62.8808 83.048 62.4083 84.7339 61.5624" stroke="black" stroke-width="1.5" stroke-linecap="round" stroke-linejoin="round"/>
<path d="M23.4424 125.031L109.151 166.678" stroke="black" stroke-width="1.5" stroke-linecap="round" stroke-linejoin="round"/>
<path d="M126.763 168.236C127.268 167.195 127.339 165.997 126.962 164.903C126.584 163.81 125.788 162.911 124.749 162.403L117.719 159.003C116.678 158.498 115.48 158.427 114.387 158.804C113.294 159.182 112.395 159.978 111.887 161.017L102.026 181.309C101.521 182.35 101.45 183.548 101.827 184.642C102.205 185.735 103.001 186.634 104.04 187.142L111.07 190.562C112.111 191.067 113.309 191.138 114.403 190.761C115.495 190.383 116.394 189.587 116.902 188.548L126.763 168.236Z" stroke="black" stroke-width="1.5" stroke-linecap="round" stroke-linejoin="round"/>
<path d="M20.6497 111.826L23.5566 105.86C24.9842 102.924 27.519 100.674 30.6041 99.605C33.6892 98.537 37.0723 98.736 40.0105 100.16L118.442 138.26C121.378 139.688 123.628 142.222 124.697 145.307C125.765 148.392 125.566 151.775 124.142 154.713L121.235 160.698" stroke="black" stroke-width="1.5" stroke-linecap="round" stroke-linejoin="round"/>
<path d="M10.4849 141.694L104.059 187.141" stroke="black" stroke-width="1.5" stroke-linecap="round" stroke-linejoin="round"/>
<path d="M43.5824 28.4547C43.5816 29.6908 43.2143 30.899 42.527 31.9265C41.8396 32.9539 40.8631 33.7545 39.7209 34.227C38.5786 34.6994 37.3219 34.8226 36.1095 34.581C34.8972 34.3394 33.7838 33.7438 32.91 32.8694C32.0362 31.995 31.4412 30.8812 31.2003 29.6687C30.9595 28.4563 31.0835 27.1996 31.5567 26.0576C32.03 24.9156 32.8312 23.9397 33.8591 23.253C34.8869 22.5663 36.0953 22.1998 37.3315 22.1998C38.153 22.1989 38.9666 22.3601 39.7257 22.6741C40.4847 22.9882 41.1743 23.449 41.755 24.03C42.3357 24.6111 42.796 25.3009 43.1096 26.0602C43.4232 26.8195 43.5839 27.6332 43.5824 28.4547Z" stroke="black" stroke-width="1.5" stroke-linecap="round" stroke-linejoin="round"/>
<path d="M36.1755 17.7768C36.9678 19.1136 37.3684 20.6462 37.3315 22.1998C35.9125 21.5795 34.6952 20.5751 33.8166 19.2998C33.0226 17.9621 32.6209 16.428 32.6576 14.8729C34.0782 15.4937 35.2968 16.4996 36.1755 17.7768Z" stroke="black" stroke-width="1.5" stroke-linecap="round" stroke-linejoin="round"/>
<path d="M78.641 96.49L67.5791 94.023" stroke="black" stroke-width="1.5" stroke-linecap="round" stroke-linejoin="round"/>
<path d="M78.751 93.776C72.0627 94.3736 65.327 94.1695 58.6873 93.168" stroke="black" stroke-width="1.5" stroke-linecap="round" stroke-linejoin="round"/>
<path d="M143.312 112.187C144.982 119.227 144.074 126.633 140.752 133.061C137.43 139.489 131.914 144.512 125.206 147.222" stroke="black" stroke-width="1.5" stroke-linecap="round" stroke-linejoin="round"/>
<path d="M86.3508 71.4133C87.0918 70.0453 87.9848 68.4303 87.9848 68.4303C88.4028 67.5753 88.3028 60.7904 88.9538 59.3304C89.1238 58.9504 92.3008 55.2304 93.7987 53.4214C95.0737 51.8845 96.2497 51.7115 93.0768 56.7844" stroke="black" stroke-width="1.5" stroke-linecap="round" stroke-linejoin="round"/>
<path d="M26.1755 119.369C26.6801 118.328 26.7515 117.13 26.374 116.036C25.9965 114.943 25.2008 114.044 24.1615 113.536L17.1506 110.136C16.1097 109.631 14.9113 109.56 13.8179 109.937C12.7245 110.315 11.8254 111.111 11.3177 112.15L1.43777 132.442C0.933174 133.483 0.861774 134.681 1.23927 135.775C1.61677 136.868 2.41246 137.767 3.45175 138.275L10.4817 141.695C11.5226 142.2 12.721 142.271 13.8143 141.894C14.9077 141.516 15.8069 140.72 16.3146 139.681L26.1755 119.369Z" stroke="black" stroke-width="1.5" stroke-linecap="round" stroke-linejoin="round"/>
<path d="M108.865 1L108.656 20.0758L120.626 40.8236L120.835 21.7478L108.865 1Z" stroke="black" stroke-width="1.5" stroke-linejoin="round"/>
<path d="M113.62 28.7514L107.35 34.9833L105.621 55.9401L120.649 40.9113L113.62 28.7514Z" stroke="black" stroke-width="1.5" stroke-linejoin="round"/>
<path d="M5.63577 91L12.4639 89.7726C16.5278 89.0257 15.3648 82.9452 11.4017 83.674L7.58937 84.326C3.52943 85.0255 2.55912 78.9118 6.52722 78.2274L13.3553 77" stroke="black" stroke-width="2" stroke-linecap="round" stroke-linejoin="round"/>
<path d="M8 76L11 93" stroke="black" stroke-width="2" stroke-linecap="round" stroke-linejoin="round"/>
<path d="M163.483 134.456L170.343 137.115C174.435 138.683 176.692 132.589 172.701 131.061L168.889 129.546C164.827 127.938 167.276 121.921 171.247 123.492L178.107 126.151" stroke="black" stroke-width="2" stroke-linecap="round" stroke-linejoin="round"/>
<path d="M174.026 121.978L167.564 138.629" stroke="black" stroke-width="2" stroke-linecap="round" stroke-linejoin="round"/>
</svg>
